<svg xmlns="http://www.w3.org/2000/svg" xmlns:xlink="http://www.w3.org/1999/xlink" xmlns:lucid="lucid" width="822" height="1902"><g transform="translate(-139 841)" lucid:page-tab-id="HWEp-vi-RSFO"><path d="M0-1000h1000v2500H0z" fill="#fff"/><path d="M279.75-.25c0 10.9-8.84 19.75-19.75 19.75-10.9 0-19.75-8.84-19.75-19.75C240.25-11.15 249.1-20 260-20c10.9 0 19.75 8.84 19.75 19.75z" stroke="#282c33" stroke-width="2" fill="#fff"/><path d="M260 19.5v55.3l40 63.2m-40-63.2L220 138m0-98.75h80" stroke="#282c33" stroke-width="2" fill="none"/><path d="M220-20h80v180h-80z" fill="none"/><use xlink:href="#a" transform="matrix(1,0,0,1,140,138) translate(65.85277777777779 17.955555555555552)"/><path d="M620-134c0 33.14-35.82 60-80 60s-80-26.86-80-60 35.82-60 80-60 80 26.86 80 60z" stroke="#282c33" stroke-width="2" fill="#fff"/><use xlink:href="#b" transform="matrix(1,0,0,1,460,-194) translate(33.07999999999999 51.9)"/><use xlink:href="#c" transform="matrix(1,0,0,1,460,-194) translate(116.93 51.9)"/><use xlink:href="#d" transform="matrix(1,0,0,1,460,-194) translate(27.129999999999995 73.5)"/><use xlink:href="#e" transform="matrix(1,0,0,1,460,-194) translate(77.03 73.5)"/><use xlink:href="#f" transform="matrix(1,0,0,1,460,-194) translate(92.03 73.5)"/><path d="M820-86c0 33.14-35.82 60-80 60s-80-26.86-80-60 35.82-60 80-60 80 26.86 80 60z" stroke="#282c33" stroke-width="2" fill="#fff"/><use xlink:href="#g" transform="matrix(1,0,0,1,660,-146) translate(28.154999999999994 51.9)"/><use xlink:href="#h" transform="matrix(1,0,0,1,660,-146) translate(71.955 51.9)"/><use xlink:href="#i" transform="matrix(1,0,0,1,660,-146) translate(86.955 51.9)"/><use xlink:href="#j" transform="matrix(1,0,0,1,660,-146) translate(31.07999999999999 73.5)"/><path d="M820 88c0 33.14-35.82 60-80 60s-80-26.86-80-60 35.82-60 80-60 80 26.86 80 60z" stroke="#282c33" stroke-width="2" fill="#fff"/><use xlink:href="#k" transform="matrix(1,0,0,1,660,28) translate(39.07999999999999 51.9)"/><use xlink:href="#l" transform="matrix(1,0,0,1,660,28) translate(38.504999999999995 73.5)"/><path d="M680 180c0 33.14-35.82 60-80 60s-80-26.86-80-60 35.82-60 80-60 80 26.86 80 60z" stroke="#282c33" stroke-width="2" fill="#fff"/><use xlink:href="#m" transform="matrix(1,0,0,1,520,120) translate(23.12999999999999 63.15)"/><use xlink:href="#n" transform="matrix(1,0,0,1,520,120) translate(98.93 63.15)"/><path d="M460-200c0 33.14-35.82 60-80 60s-80-26.86-80-60 35.82-60 80-60 80 26.86 80 60z" stroke="#282c33" stroke-width="2" fill="#fff"/><use xlink:href="#o" transform="matrix(1,0,0,1,300,-260) translate(20.529999999999994 63.15)"/><use xlink:href="#h" transform="matrix(1,0,0,1,300,-260) translate(69.47999999999999 63.15)"/><use xlink:href="#p" transform="matrix(1,0,0,1,300,-260) translate(84.48 63.15)"/><path d="M380-122.62v4.12a.5.5 0 0 1-.5.5.5.5 0 0 0-.5.5V58a12 12 0 0 1-12 12H261.5" stroke="#333" fill="none"/><path d="M380-137.38l4.63 14.26h-9.26z" stroke="#333" fill="#333"/><path d="M261.5 70H258M540-56.62V-52a12 12 0 0 1-12 12H392a12 12 0 0 0-12 12v86a12 12 0 0 1-12 12H261.5" stroke="#333" fill="none"/><path d="M540-71.38l4.63 14.26h-9.26z" stroke="#333" fill="#333"/><path d="M261.5 70H258M642.62-86a4.62 4.62 0 0 0-4.62 4.62V-12a12 12 0 0 1-12 12h-98.5a12 12 0 0 0-12 12v46a12 12 0 0 1-12 12h-242" stroke="#333" fill="none"/><path d="M657.38-86l-14.26 4.64v-9.28z" stroke="#333" fill="#333"/><path d="M261.5 70H258M642.62 88a4.62 4.62 0 0 1-4.62-4.62V79.4a8.6 8.6 0 0 0-8.6-8.6h-347a.4.4 0 0 1-.4-.4.4.4 0 0 0-.4-.4h-20.1" stroke="#333" fill="none"/><path d="M657.38 88l-14.26 4.64v-9.28z" stroke="#333" fill="#333"/><path d="M261.5 70H258M600 102.62V82.8a12 12 0 0 0-12-12H261.5" stroke="#333" fill="none"/><path d="M600 117.38l-4.63-14.26h9.26z" stroke="#333" fill="#333"/><path d="M261.5 70.8H258" stroke="#333" fill="none"/><path d="M320 980c0 33.14-35.82 60-80 60s-80-26.86-80-60 35.82-60 80-60 80 26.86 80 60z" stroke="#282c33" stroke-width="2" fill="#fff"/><use xlink:href="#q" transform="matrix(1,0,0,1,160,920.0000000000002) translate(40.57999999999999 51.9)"/><use xlink:href="#r" transform="matrix(1,0,0,1,160,920.0000000000002) translate(46.05499999999999 73.5)"/><path d="M279.75 679.75c0 10.9-8.84 19.75-19.75 19.75-10.9 0-19.75-8.84-19.75-19.75 0-10.9 8.84-19.75 19.75-19.75 10.9 0 19.75 8.84 19.75 19.75z" stroke="#282c33" stroke-width="2" fill="#fff"/><path d="M260 699.5v55.3l40 63.2m-40-63.2L220 818m0-98.75h80" stroke="#282c33" stroke-width="2" fill="none"/><path d="M220 660h80v180h-80z" fill="none"/><use xlink:href="#s" transform="matrix(1,0,0,1,140,818.0000000000002) translate(50.95216049382718 17.955555555555552)"/><path d="M660 560c0 33.14-35.82 60-80 60s-80-26.86-80-60 35.82-60 80-60 80 26.86 80 60z" stroke="#282c33" stroke-width="2" fill="#fff"/><use xlink:href="#b" transform="matrix(1,0,0,1,500,500.0000000000002) translate(33.07999999999999 51.9)"/><use xlink:href="#c" transform="matrix(1,0,0,1,500,500.0000000000002) translate(116.93 51.9)"/><use xlink:href="#d" transform="matrix(1,0,0,1,500,500.0000000000002) translate(32.105 73.5)"/><use xlink:href="#t" transform="matrix(1,0,0,1,500,500.0000000000002) translate(82.005 73.5)"/><path d="M760 680c0 33.14-35.82 60-80 60s-80-26.86-80-60 35.82-60 80-60 80 26.86 80 60z" stroke="#282c33" stroke-width="2" fill="#fff"/><use xlink:href="#u" transform="matrix(1,0,0,1,600,620.0000000000002) translate(28.154999999999994 51.9)"/><use xlink:href="#h" transform="matrix(1,0,0,1,600,620.0000000000002) translate(71.955 51.9)"/><use xlink:href="#i" transform="matrix(1,0,0,1,600,620.0000000000002) translate(86.955 51.9)"/><use xlink:href="#v" transform="matrix(1,0,0,1,600,620.0000000000002) translate(31.07999999999999 73.5)"/><path d="M800 800c0 33.14-35.82 60-80 60s-80-26.86-80-60 35.82-60 80-60 80 26.86 80 60z" stroke="#282c33" stroke-width="2" fill="#fff"/><use xlink:href="#w" transform="matrix(1,0,0,1,640,740.0000000000002) translate(43.57999999999999 51.9)"/><use xlink:href="#x" transform="matrix(1,0,0,1,640,740.0000000000002) translate(38.504999999999995 73.5)"/><path d="M500 960c0 33.14-35.82 60-80 60s-80-26.86-80-60 35.82-60 80-60 80 26.86 80 60z" stroke="#282c33" stroke-width="2" fill="#fff"/><use xlink:href="#q" transform="matrix(1,0,0,1,340,900.0000000000002) translate(40.58 40.65)"/><use xlink:href="#y" transform="matrix(1,0,0,1,340,900.0000000000002) translate(19.03000000000001 62.25)"/><use xlink:href="#h" transform="matrix(1,0,0,1,340,900.0000000000002) translate(63.03000000000001 62.25)"/><use xlink:href="#z" transform="matrix(1,0,0,1,340,900.0000000000002) translate(78.03 62.25)"/><use xlink:href="#A" transform="matrix(1,0,0,1,340,900.0000000000002) translate(53.53 83.85000000000001)"/><use xlink:href="#B" transform="matrix(1,0,0,1,340,900.0000000000002) translate(78.53 83.85000000000001)"/><path d="M480 495c0 33.14-35.82 60-80 60s-80-26.86-80-60 35.82-60 80-60 80 26.86 80 60z" stroke="#282c33" stroke-width="2" fill="#fff"/><use xlink:href="#C" transform="matrix(1,0,0,1,320,435.0000000000002) translate(20.529999999999994 63.15)"/><use xlink:href="#h" transform="matrix(1,0,0,1,320,435.0000000000002) translate(69.47999999999999 63.15)"/><use xlink:href="#D" transform="matrix(1,0,0,1,320,435.0000000000002) translate(84.48 63.15)"/><path d="M400 572.38V738a12 12 0 0 1-12 12H261.5" stroke="#333" fill="none"/><path d="M400 557.62l4.63 14.26h-9.26z" stroke="#333" fill="#333"/><path d="M261.5 750H258M482.62 560H482a12 12 0 0 0-12 12v166a12 12 0 0 1-12 12H261.5" stroke="#333" fill="none"/><path d="M497.38 560l-14.26 4.63v-9.26z" stroke="#333" fill="#333"/><path d="M261.5 750H258M582.62 680H482a12 12 0 0 0-12 12v46a12 12 0 0 1-12 12H261.5" stroke="#333" fill="none"/><path d="M597.38 680l-14.26 4.63v-9.26z" stroke="#333" fill="#333"/><path d="M261.5 750H258M622.62 800a4.62 4.62 0 0 1-4.62-4.62V762.8a12 12 0 0 0-12-12H490.4a.4.4 0 0 1-.4-.4.4.4 0 0 0-.4-.4H261.5" stroke="#333" fill="none"/><path d="M637.38 800l-14.26 4.63v-9.26z" stroke="#333" fill="#333"/><path d="M261.5 750H258M420 882.62V762.8a12 12 0 0 0-12-12H261.5" stroke="#333" fill="none"/><path d="M420 897.38l-4.63-14.26h9.26z" stroke="#333" fill="#333"/><path d="M261.5 750.8H258M240 902.62V862a12 12 0 0 1 12-12h77.15a12 12 0 0 0 12-12v-87.5" stroke="#333" fill="none"/><path d="M240 917.38l-4.63-14.26h9.26z" stroke="#333" fill="#333"/><path d="M341.15 750.5v-.5M260 658.5V166.87" stroke="#333" fill="none"/><path d="M260.48 659.05l-.43-.05h-.53v-.5h.96z" stroke="#333" stroke-width=".05" fill="#333"/><path d="M260 160.98l7.64 12.9h-15.28z" stroke="#333" fill="#333"/><path d="M261.5 70h85.7a12 12 0 0 1 12 12v166a12 12 0 0 0 12 12h.93M261.5 70H258" stroke="#333" fill="none"/><path d="M378.02 260l-12.9 7.64v-15.28z" stroke="#333" fill="#333"/><path d="M540 260c0 33.14-35.82 60-80 60s-80-26.86-80-60 35.82-60 80-60 80 26.86 80 60z" stroke="#282c33" stroke-width="2" fill="#fff"/><use xlink:href="#E" transform="matrix(1,0,0,1,380,200) translate(47.10499999999999 40.65)"/><use xlink:href="#F" transform="matrix(1,0,0,1,380,200) translate(15.079999999999993 62.25)"/><use xlink:href="#h" transform="matrix(1,0,0,1,380,200) translate(77.08 62.25)"/><use xlink:href="#G" transform="matrix(1,0,0,1,380,200) translate(92.08 62.25)"/><use xlink:href="#H" transform="matrix(1,0,0,1,380,200) translate(63.08 83.85000000000001)"/><path d="M680 920c0 33.14-35.82 60-80 60s-80-26.86-80-60 35.82-60 80-60 80 26.86 80 60z" stroke="#282c33" stroke-width="2" fill="#fff"/><use xlink:href="#I" transform="matrix(1,0,0,1,520,860.0000000000002) translate(58.055 29.4)"/><use xlink:href="#c" transform="matrix(1,0,0,1,520,860.0000000000002) translate(91.955 29.4)"/><use xlink:href="#J" transform="matrix(1,0,0,1,520,860.0000000000002) translate(47.08 51)"/><use xlink:href="#K" transform="matrix(1,0,0,1,520,860.0000000000002) translate(21.57999999999999 72.60000000000001)"/><use xlink:href="#L" transform="matrix(1,0,0,1,520,860.0000000000002) translate(118.42999999999999 72.60000000000001)"/><use xlink:href="#r" transform="matrix(1,0,0,1,520,860.0000000000002) translate(46.055 94.20000000000002)"/><path d="M600 842.62a4.62 4.62 0 0 0-4.62-4.62H552a12 12 0 0 1-12-12v-63.2a12 12 0 0 0-12-12H261.5" stroke="#333" fill="none"/><path d="M600 857.38l-4.63-14.26h9.26z" stroke="#333" fill="#333"/><path d="M261.5 750.8H258" stroke="#333" fill="none"/><path d="M279.75-600.25c0 10.9-8.84 19.75-19.75 19.75-10.9 0-19.75-8.84-19.75-19.75 0-10.9 8.84-19.75 19.75-19.75 10.9 0 19.75 8.84 19.75 19.75z" stroke="#282c33" stroke-width="2" fill="#fff"/><path d="M260-580.5v55.3l40 63.2m-40-63.2L220-462m0-98.75h80" stroke="#282c33" stroke-width="2" fill="none"/><path d="M220-620h80v180h-80z" fill="none"/><use xlink:href="#M" transform="matrix(1,0,0,1,140.0000000000001,-462) translate(81.4391975308642 17.955555555555552)"/><path d="M520-760c0 33.14-35.82 60-80 60s-80-26.86-80-60 35.82-60 80-60 80 26.86 80 60z" stroke="#282c33" stroke-width="2" fill="#fff"/><use xlink:href="#b" transform="matrix(1,0,0,1,360,-820) translate(33.07999999999999 51.9)"/><use xlink:href="#c" transform="matrix(1,0,0,1,360,-820) translate(116.93 51.9)"/><use xlink:href="#d" transform="matrix(1,0,0,1,360,-820) translate(27.129999999999995 73.5)"/><use xlink:href="#e" transform="matrix(1,0,0,1,360,-820) translate(77.03 73.5)"/><use xlink:href="#f" transform="matrix(1,0,0,1,360,-820) translate(92.03 73.5)"/><path d="M660-680c0 33.14-35.82 60-80 60s-80-26.86-80-60 35.82-60 80-60 80 26.86 80 60z" stroke="#282c33" stroke-width="2" fill="#fff"/><g><use xlink:href="#u" transform="matrix(1,0,0,1,500,-740) translate(28.154999999999994 51.9)"/><use xlink:href="#h" transform="matrix(1,0,0,1,500,-740) translate(71.955 51.9)"/><use xlink:href="#i" transform="matrix(1,0,0,1,500,-740) translate(86.955 51.9)"/><use xlink:href="#v" transform="matrix(1,0,0,1,500,-740) translate(31.07999999999999 73.5)"/></g><path d="M720-567c0 33.14-35.82 60-80 60s-80-26.86-80-60 35.82-60 80-60 80 26.86 80 60z" stroke="#282c33" stroke-width="2" fill="#fff"/><g><use xlink:href="#k" transform="matrix(1,0,0,1,560,-627) translate(39.07999999999999 51.9)"/><use xlink:href="#l" transform="matrix(1,0,0,1,560,-627) translate(38.504999999999995 73.5)"/></g><path d="M640-447c0 33.14-35.82 60-80 60s-80-26.86-80-60 35.82-60 80-60 80 26.86 80 60z" stroke="#282c33" stroke-width="2" fill="#fff"/><g><use xlink:href="#N" transform="matrix(1,0,0,1,480,-507) translate(23.12999999999999 63.15)"/><use xlink:href="#n" transform="matrix(1,0,0,1,480,-507) translate(98.93 63.15)"/></g><path d="M360-720c0 33.14-35.82 60-80 60s-80-26.86-80-60 35.82-60 80-60 80 26.86 80 60z" stroke="#282c33" stroke-width="2" fill="#fff"/><g><use xlink:href="#o" transform="matrix(1,0,0,1,200,-780) translate(20.529999999999994 63.15)"/><use xlink:href="#h" transform="matrix(1,0,0,1,200,-780) translate(69.47999999999999 63.15)"/><use xlink:href="#p" transform="matrix(1,0,0,1,200,-780) translate(84.48 63.15)"/></g><path d="M280-642.62V-632a12 12 0 0 0 12 12h16a12 12 0 0 1 12 12v66a12 12 0 0 1-12 12h-46.5" stroke="#333" fill="none"/><path d="M280-657.38l4.63 14.26h-9.26z" stroke="#333" fill="#333"/><path d="M261.5-530H258M440-682.62V-652a12 12 0 0 1-12 12h-36a12 12 0 0 0-12 12v86a12 12 0 0 1-12 12H261.5" stroke="#333" fill="none"/><path d="M440-697.38l4.63 14.26h-9.26z" stroke="#333" fill="#333"/><path d="M261.5-530H258M482.62-680a4.62 4.62 0 0 0-4.62 4.62V-652a12 12 0 0 1-12 12h-74a12 12 0 0 0-12 12v86a12 12 0 0 1-12 12H261.5" stroke="#333" fill="none"/><path d="M497.38-680l-14.26 4.63v-9.26z" stroke="#333" fill="#333"/><path d="M261.5-530H258M542.62-567H472a12 12 0 0 0-12 12v13a12 12 0 0 1-12 12H261.5" stroke="#333" fill="none"/><path d="M557.38-567l-14.26 4.63v-9.26z" stroke="#333" fill="#333"/><path d="M261.5-530H258M555.62-520H465a5 5 0 0 1-5-5 5 5 0 0 0-5-5H301.4a.4.4 0 0 0-.4.4.4.4 0 0 1-.4.4h-39.1" stroke="#333" fill="none"/><path d="M559.45-509.52l-9.25-11.8 8.7-3.2z" stroke="#333" fill="#333"/><path d="M261.5-529.2H258M260-21.5v-391.63" stroke="#333" fill="none"/><path d="M260.48-20.95l-.43-.05h-.53v-.5h.96z" stroke="#333" stroke-width=".05" fill="#333"/><path d="M260-419.02l7.64 12.9h-15.28z" stroke="#333" fill="#333"/><path d="M261.5-530H307a12 12 0 0 1 12 12v146a12 12 0 0 0 12 12h21.13M261.5-530H258" stroke="#333" fill="none"/><path d="M358.02-360l-12.9 7.64v-15.28z" stroke="#333" fill="#333"/><path d="M520-360c0 33.14-35.82 60-80 60s-80-26.86-80-60 35.82-60 80-60 80 26.86 80 60z" stroke="#282c33" stroke-width="2" fill="#fff"/><g><use xlink:href="#E" transform="matrix(1,0,0,1,360,-420) translate(47.10499999999999 40.65)"/><use xlink:href="#F" transform="matrix(1,0,0,1,360,-420) translate(15.079999999999993 62.25)"/><use xlink:href="#h" transform="matrix(1,0,0,1,360,-420) translate(77.08 62.25)"/><use xlink:href="#G" transform="matrix(1,0,0,1,360,-420) translate(92.08 62.25)"/><use xlink:href="#H" transform="matrix(1,0,0,1,360,-420) translate(63.08 83.85000000000001)"/></g><path d="M940 0c0 33.14-35.82 60-80 60s-80-26.86-80-60 35.82-60 80-60 80 26.86 80 60z" stroke="#282c33" stroke-width="2" fill="#fff"/><g><use xlink:href="#O" transform="matrix(1,0,0,1,780,-60) translate(26.154999999999998 48.15)"/><use xlink:href="#d" transform="matrix(1,0,0,1,780,-60) translate(73.955 48.15)"/><use xlink:href="#c" transform="matrix(1,0,0,1,780,-60) translate(123.855 48.15)"/><use xlink:href="#P" transform="matrix(1,0,0,1,780,-60) translate(10.079999999999993 69.75)"/><use xlink:href="#Q" transform="matrix(1,0,0,1,780,-60) translate(66.93 69.75)"/></g><path d="M762.62 0H527.5a12 12 0 0 0-12 12v46a12 12 0 0 1-12 12H282.4a.4.4 0 0 0-.4.4.4.4 0 0 1-.4.4h-20.1" stroke="#333" fill="none"/><path d="M777.38 0l-14.26 4.63v-9.27z" stroke="#333" fill="#333"/><path d="M261.5 70.8H258" stroke="#333" fill="none"/><defs><path fill="#282c33" d="M240 0l2-218c-23 76-54 145-80 218h-23L58-218 59 0H30v-248h44l77 211c21-75 51-140 76-211h43V0h-30" id="R"/><path fill="#282c33" d="M100-194c62-1 85 37 85 99 1 63-27 99-86 99S16-35 15-95c0-66 28-99 85-99zM99-20c44 1 53-31 53-75 0-43-8-75-51-75s-53 32-53 75 10 74 51 75" id="S"/><path fill="#282c33" d="M85-194c31 0 48 13 60 33l-1-100h32l1 261h-30c-2-10 0-23-3-31C134-8 116 4 85 4 32 4 16-35 15-94c0-66 23-100 70-100zm9 24c-40 0-46 34-46 75 0 40 6 74 45 74 42 0 51-32 51-76 0-42-9-74-50-73" id="T"/><path fill="#282c33" d="M100-194c63 0 86 42 84 106H49c0 40 14 67 53 68 26 1 43-12 49-29l28 8c-11 28-37 45-77 45C44 4 14-33 15-96c1-61 26-98 85-98zm52 81c6-60-76-77-97-28-3 7-6 17-6 28h103" id="U"/><path fill="#282c33" d="M114-163C36-179 61-72 57 0H25l-1-190h30c1 12-1 29 2 39 6-27 23-49 58-41v29" id="V"/><path fill="#282c33" d="M141-36C126-15 110 5 73 4 37 3 15-17 15-53c-1-64 63-63 125-63 3-35-9-54-41-54-24 1-41 7-42 31l-33-3c5-37 33-52 76-52 45 0 72 20 72 64v82c-1 20 7 32 28 27v20c-31 9-61-2-59-35zM48-53c0 20 12 33 32 33 41-3 63-29 60-74-43 2-92-5-92 41" id="W"/><g id="a"><use transform="matrix(0.06234567901234567,0,0,0.06234567901234567,0,0)" xlink:href="#R"/><use transform="matrix(0.06234567901234567,0,0,0.06234567901234567,18.641358024691353,0)" xlink:href="#S"/><use transform="matrix(0.06234567901234567,0,0,0.06234567901234567,31.110493827160486,0)" xlink:href="#T"/><use transform="matrix(0.06234567901234567,0,0,0.06234567901234567,43.57962962962962,0)" xlink:href="#U"/><use transform="matrix(0.06234567901234567,0,0,0.06234567901234567,56.048765432098755,0)" xlink:href="#V"/><use transform="matrix(0.06234567901234567,0,0,0.06234567901234567,63.46790123456789,0)" xlink:href="#W"/><use transform="matrix(0.06234567901234567,0,0,0.06234567901234567,75.93703703703702,0)" xlink:href="#T"/><use transform="matrix(0.06234567901234567,0,0,0.06234567901234567,88.40617283950616,0)" xlink:href="#S"/><use transform="matrix(0.06234567901234567,0,0,0.06234567901234567,100.8753086419753,0)" xlink:href="#V"/></g><path d="M143 4C61 4 22-44 18-125c-5-107 100-154 193-111 17 8 29 25 37 43l-32 9c-13-25-37-40-76-40-61 0-88 39-88 99 0 61 29 100 91 101 35 0 62-11 79-27v-45h-74v-28h105v86C228-13 192 4 143 4" id="X"/><path d="M100-194c63 0 86 42 84 106H49c0 40 14 67 53 68 26 1 43-12 49-29l28 8c-11 28-37 45-77 45C44 4 14-33 15-96c1-61 26-98 85-98zm52 81c6-60-76-77-97-28-3 7-6 17-6 28h103" id="Y"/><path d="M114-163C36-179 61-72 57 0H25l-1-190h30c1 12-1 29 2 39 6-27 23-49 58-41v29" id="Z"/><path d="M117-194c89-4 53 116 60 194h-32v-121c0-31-8-49-39-48C34-167 62-67 57 0H25l-1-190h30c1 10-1 24 2 32 11-22 29-35 61-36" id="aa"/><path d="M96-169c-40 0-48 33-48 73s9 75 48 75c24 0 41-14 43-38l32 2c-6 37-31 61-74 61-59 0-76-41-82-99-10-93 101-131 147-64 4 7 5 14 7 22l-32 3c-4-21-16-35-41-35" id="ab"/><path d="M24-231v-30h32v30H24zM24 0v-190h32V0H24" id="ac"/><path d="M141-36C126-15 110 5 73 4 37 3 15-17 15-53c-1-64 63-63 125-63 3-35-9-54-41-54-24 1-41 7-42 31l-33-3c5-37 33-52 76-52 45 0 72 20 72 64v82c-1 20 7 32 28 27v20c-31 9-61-2-59-35zM48-53c0 20 12 33 32 33 41-3 63-29 60-74-43 2-92-5-92 41" id="ad"/><g id="b"><use transform="matrix(0.05,0,0,0.05,0,0)" xlink:href="#X"/><use transform="matrix(0.05,0,0,0.05,14,0)" xlink:href="#Y"/><use transform="matrix(0.05,0,0,0.05,24,0)" xlink:href="#Z"/><use transform="matrix(0.05,0,0,0.05,29.950000000000003,0)" xlink:href="#Y"/><use transform="matrix(0.05,0,0,0.05,39.95,0)" xlink:href="#aa"/><use transform="matrix(0.05,0,0,0.05,49.95,0)" xlink:href="#ab"/><use transform="matrix(0.05,0,0,0.05,58.95,0)" xlink:href="#ac"/><use transform="matrix(0.05,0,0,0.05,62.900000000000006,0)" xlink:href="#ad"/><use transform="matrix(0.05,0,0,0.05,72.9,0)" xlink:href="#Z"/></g><use transform="matrix(0.05,0,0,0.05,0,0)" xlink:href="#Y" id="c"/><path d="M85-194c31 0 48 13 60 33l-1-100h32l1 261h-30c-2-10 0-23-3-31C134-8 116 4 85 4 32 4 16-35 15-94c0-66 23-100 70-100zm9 24c-40 0-46 34-46 75 0 40 6 74 45 74 42 0 51-32 51-76 0-42-9-74-50-73" id="ae"/><path d="M59-47c-2 24 18 29 38 22v24C64 9 27 4 27-40v-127H5v-23h24l9-43h21v43h35v23H59v120" id="af"/><g id="d"><use transform="matrix(0.05,0,0,0.05,0,0)" xlink:href="#Y"/><use transform="matrix(0.05,0,0,0.05,10,0)" xlink:href="#ae"/><use transform="matrix(0.05,0,0,0.05,20,0)" xlink:href="#ac"/><use transform="matrix(0.05,0,0,0.05,23.95,0)" xlink:href="#af"/><use transform="matrix(0.05,0,0,0.05,28.950000000000003,0)" xlink:href="#ad"/><use transform="matrix(0.05,0,0,0.05,38.95,0)" xlink:href="#Z"/></g><path d="M100-194c62-1 85 37 85 99 1 63-27 99-86 99S16-35 15-95c0-66 28-99 85-99zM99-20c44 1 53-31 53-75 0-43-8-75-51-75s-53 32-53 75 10 74 51 75" id="ag"/><use transform="matrix(0.05,0,0,0.05,0,0)" xlink:href="#ag" id="e"/><path d="M30-248c87 1 191-15 191 75 0 78-77 80-158 76V0H30v-248zm33 125c57 0 124 11 124-50 0-59-68-47-124-48v98" id="ah"/><path d="M101-234c-31-9-42 10-38 44h38v23H63V0H32v-167H5v-23h27c-7-52 17-82 69-68v24" id="ai"/><path d="M24 0v-261h32V0H24" id="aj"/><g id="f"><use transform="matrix(0.05,0,0,0.05,0,0)" xlink:href="#ah"/><use transform="matrix(0.05,0,0,0.05,12,0)" xlink:href="#Y"/><use transform="matrix(0.05,0,0,0.05,22,0)" xlink:href="#Z"/><use transform="matrix(0.05,0,0,0.05,27.950000000000003,0)" xlink:href="#ai"/><use transform="matrix(0.05,0,0,0.05,32.95,0)" xlink:href="#ac"/><use transform="matrix(0.05,0,0,0.05,36.900000000000006,0)" xlink:href="#aj"/></g><path d="M212-179c-10-28-35-45-73-45-59 0-87 40-87 99 0 60 29 101 89 101 43 0 62-24 78-52l27 14C228-24 195 4 139 4 59 4 22-46 18-125c-6-104 99-153 187-111 19 9 31 26 39 46" id="ak"/><g id="g"><use transform="matrix(0.05,0,0,0.05,0,0)" xlink:href="#ak"/><use transform="matrix(0.05,0,0,0.05,12.950000000000001,0)" xlink:href="#Z"/><use transform="matrix(0.05,0,0,0.05,18.900000000000002,0)" xlink:href="#ac"/><use transform="matrix(0.05,0,0,0.05,22.85,0)" xlink:href="#ad"/><use transform="matrix(0.05,0,0,0.05,32.85,0)" xlink:href="#Z"/></g><use transform="matrix(0.05,0,0,0.05,0,0)" xlink:href="#Y" id="h"/><g id="i"><use transform="matrix(0.05,0,0,0.05,0,0)" xlink:href="#Y"/><use transform="matrix(0.05,0,0,0.05,10,0)" xlink:href="#ae"/><use transform="matrix(0.05,0,0,0.05,20,0)" xlink:href="#ac"/><use transform="matrix(0.05,0,0,0.05,23.95,0)" xlink:href="#af"/><use transform="matrix(0.05,0,0,0.05,28.950000000000003,0)" xlink:href="#ad"/><use transform="matrix(0.05,0,0,0.05,38.95,0)" xlink:href="#Z"/></g><path d="M210-169c-67 3-38 105-44 169h-31v-121c0-29-5-50-35-48C34-165 62-65 56 0H25l-1-190h30c1 10-1 24 2 32 10-44 99-50 107 0 11-21 27-35 58-36 85-2 47 119 55 194h-31v-121c0-29-5-49-35-48" id="al"/><path d="M135-143c-3-34-86-38-87 0 15 53 115 12 119 90S17 21 10-45l28-5c4 36 97 45 98 0-10-56-113-15-118-90-4-57 82-63 122-42 12 7 21 19 24 35" id="am"/><g id="j"><use transform="matrix(0.05,0,0,0.05,0,0)" xlink:href="#ab"/><use transform="matrix(0.05,0,0,0.05,9,0)" xlink:href="#ag"/><use transform="matrix(0.05,0,0,0.05,19,0)" xlink:href="#al"/><use transform="matrix(0.05,0,0,0.05,33.95,0)" xlink:href="#Y"/><use transform="matrix(0.05,0,0,0.05,43.95,0)" xlink:href="#aa"/><use transform="matrix(0.05,0,0,0.05,53.95,0)" xlink:href="#af"/><use transform="matrix(0.05,0,0,0.05,58.95,0)" xlink:href="#ad"/><use transform="matrix(0.05,0,0,0.05,68.95,0)" xlink:href="#Z"/><use transform="matrix(0.05,0,0,0.05,74.9,0)" xlink:href="#ac"/><use transform="matrix(0.05,0,0,0.05,78.85000000000001,0)" xlink:href="#ag"/><use transform="matrix(0.05,0,0,0.05,88.85000000000001,0)" xlink:href="#am"/></g><path d="M30-248c118-7 216 8 213 122C240-48 200 0 122 0H30v-248zM63-27c89 8 146-16 146-99s-60-101-146-95v194" id="an"/><path d="M84 4C-5 8 30-112 23-190h32v120c0 31 7 50 39 49 72-2 45-101 50-169h31l1 190h-30c-1-10 1-25-2-33-11 22-28 36-60 37" id="ao"/><g id="k"><use transform="matrix(0.05,0,0,0.05,0,0)" xlink:href="#an"/><use transform="matrix(0.05,0,0,0.05,12.950000000000001,0)" xlink:href="#Y"/><use transform="matrix(0.05,0,0,0.05,22.950000000000003,0)" xlink:href="#aa"/><use transform="matrix(0.05,0,0,0.05,32.95,0)" xlink:href="#ao"/><use transform="matrix(0.05,0,0,0.05,42.95,0)" xlink:href="#aa"/><use transform="matrix(0.05,0,0,0.05,52.95,0)" xlink:href="#ab"/><use transform="matrix(0.05,0,0,0.05,61.95,0)" xlink:href="#ac"/><use transform="matrix(0.05,0,0,0.05,65.9,0)" xlink:href="#ad"/><use transform="matrix(0.05,0,0,0.05,75.9,0)" xlink:href="#Z"/></g><path d="M85 4C-4 8 31-112 24-190h32v120c0 31 7 50 39 49 72-2 45-101 50-169h31l1 190h-30c-1-10 1-25-2-33-11 22-28 36-60 37zM73-211c8-23 27-35 38-54h36v5l-58 49H73" id="ap"/><g id="l"><use transform="matrix(0.05,0,0,0.05,0,0)" xlink:href="#ab"/><use transform="matrix(0.05,0,0,0.05,9,0)" xlink:href="#ag"/><use transform="matrix(0.05,0,0,0.05,19,0)" xlink:href="#aa"/><use transform="matrix(0.05,0,0,0.05,29,0)" xlink:href="#af"/><use transform="matrix(0.05,0,0,0.05,34,0)" xlink:href="#Y"/><use transform="matrix(0.05,0,0,0.05,44,0)" xlink:href="#ap"/><use transform="matrix(0.05,0,0,0.05,54,0)" xlink:href="#ae"/><use transform="matrix(0.05,0,0,0.05,64,0)" xlink:href="#ag"/><use transform="matrix(0.05,0,0,0.05,74,0)" xlink:href="#am"/></g><path d="M63-220v92h138v28H63V0H30v-248h175v28H63" id="aq"/><path d="M108 0H70L1-190h34L89-25l56-165h34" id="ar"/><g id="m"><use transform="matrix(0.05,0,0,0.05,0,0)" xlink:href="#aq"/><use transform="matrix(0.05,0,0,0.05,10.950000000000001,0)" xlink:href="#ad"/><use transform="matrix(0.05,0,0,0.05,20.950000000000003,0)" xlink:href="#ar"/><use transform="matrix(0.05,0,0,0.05,29.950000000000003,0)" xlink:href="#ag"/><use transform="matrix(0.05,0,0,0.05,39.95,0)" xlink:href="#Z"/><use transform="matrix(0.05,0,0,0.05,45.900000000000006,0)" xlink:href="#ac"/><use transform="matrix(0.05,0,0,0.05,49.85000000000001,0)" xlink:href="#af"/><use transform="matrix(0.05,0,0,0.05,54.85,0)" xlink:href="#ad"/><use transform="matrix(0.05,0,0,0.05,64.85000000000001,0)" xlink:href="#Z"/></g><g id="n"><use transform="matrix(0.05,0,0,0.05,0,0)" xlink:href="#ac"/><use transform="matrix(0.05,0,0,0.05,3.95,0)" xlink:href="#af"/><use transform="matrix(0.05,0,0,0.05,8.95,0)" xlink:href="#Y"/><use transform="matrix(0.05,0,0,0.05,18.95,0)" xlink:href="#aa"/><use transform="matrix(0.05,0,0,0.05,28.950000000000003,0)" xlink:href="#am"/></g><path d="M30 0v-248h33v221h125V0H30" id="as"/><path d="M177-190C167-65 218 103 67 71c-23-6-38-20-44-43l32-5c15 47 100 32 89-28v-30C133-14 115 1 83 1 29 1 15-40 15-95c0-56 16-97 71-98 29-1 48 16 59 35 1-10 0-23 2-32h30zM94-22c36 0 50-32 50-73 0-42-14-75-50-75-39 0-46 34-46 75s6 73 46 73" id="at"/><g id="o"><use transform="matrix(0.05,0,0,0.05,0,0)" xlink:href="#as"/><use transform="matrix(0.05,0,0,0.05,10,0)" xlink:href="#ag"/><use transform="matrix(0.05,0,0,0.05,20,0)" xlink:href="#at"/><use transform="matrix(0.05,0,0,0.05,30,0)" xlink:href="#ac"/><use transform="matrix(0.05,0,0,0.05,33.95,0)" xlink:href="#aa"/></g><g id="p"><use transform="matrix(0.05,0,0,0.05,0,0)" xlink:href="#as"/><use transform="matrix(0.05,0,0,0.05,10,0)" xlink:href="#ag"/><use transform="matrix(0.05,0,0,0.05,20,0)" xlink:href="#at"/><use transform="matrix(0.05,0,0,0.05,30,0)" xlink:href="#ag"/><use transform="matrix(0.05,0,0,0.05,40,0)" xlink:href="#ao"/><use transform="matrix(0.05,0,0,0.05,50,0)" xlink:href="#af"/></g><g id="q"><use transform="matrix(0.05,0,0,0.05,0,0)" xlink:href="#X"/><use transform="matrix(0.05,0,0,0.05,14,0)" xlink:href="#Y"/><use transform="matrix(0.05,0,0,0.05,24,0)" xlink:href="#Z"/><use transform="matrix(0.05,0,0,0.05,29.950000000000003,0)" xlink:href="#Y"/><use transform="matrix(0.05,0,0,0.05,39.95,0)" xlink:href="#aa"/><use transform="matrix(0.05,0,0,0.05,49.95,0)" xlink:href="#ab"/><use transform="matrix(0.05,0,0,0.05,58.95,0)" xlink:href="#ac"/><use transform="matrix(0.05,0,0,0.05,62.900000000000006,0)" xlink:href="#ad"/><use transform="matrix(0.05,0,0,0.05,72.9,0)" xlink:href="#Z"/></g><g id="r"><use transform="matrix(0.05,0,0,0.05,0,0)" xlink:href="#ao"/><use transform="matrix(0.05,0,0,0.05,10,0)" xlink:href="#am"/><use transform="matrix(0.05,0,0,0.05,19,0)" xlink:href="#ao"/><use transform="matrix(0.05,0,0,0.05,29,0)" xlink:href="#ad"/><use transform="matrix(0.05,0,0,0.05,39,0)" xlink:href="#Z"/><use transform="matrix(0.05,0,0,0.05,44.95,0)" xlink:href="#ac"/><use transform="matrix(0.05,0,0,0.05,48.900000000000006,0)" xlink:href="#ag"/><use transform="matrix(0.05,0,0,0.05,58.900000000000006,0)" xlink:href="#am"/></g><path fill="#282c33" d="M205 0l-28-72H64L36 0H1l101-248h38L239 0h-34zm-38-99l-47-123c-12 45-31 82-46 123h93" id="au"/><path fill="#282c33" d="M210-169c-67 3-38 105-44 169h-31v-121c0-29-5-50-35-48C34-165 62-65 56 0H25l-1-190h30c1 10-1 24 2 32 10-44 99-50 107 0 11-21 27-35 58-36 85-2 47 119 55 194h-31v-121c0-29-5-49-35-48" id="av"/><path fill="#282c33" d="M24-231v-30h32v30H24zM24 0v-190h32V0H24" id="aw"/><path fill="#282c33" d="M117-194c89-4 53 116 60 194h-32v-121c0-31-8-49-39-48C34-167 62-67 57 0H25l-1-190h30c1 10-1 24 2 32 11-22 29-35 61-36" id="ax"/><path fill="#282c33" d="M135-143c-3-34-86-38-87 0 15 53 115 12 119 90S17 21 10-45l28-5c4 36 97 45 98 0-10-56-113-15-118-90-4-57 82-63 122-42 12 7 21 19 24 35" id="ay"/><path fill="#282c33" d="M59-47c-2 24 18 29 38 22v24C64 9 27 4 27-40v-127H5v-23h24l9-43h21v43h35v23H59v120" id="az"/><g id="s"><use transform="matrix(0.06234567901234567,0,0,0.06234567901234567,0,0)" xlink:href="#au"/><use transform="matrix(0.06234567901234567,0,0,0.06234567901234567,14.96296296296296,0)" xlink:href="#T"/><use transform="matrix(0.06234567901234567,0,0,0.06234567901234567,27.432098765432094,0)" xlink:href="#av"/><use transform="matrix(0.06234567901234567,0,0,0.06234567901234567,46.073456790123444,0)" xlink:href="#aw"/><use transform="matrix(0.06234567901234567,0,0,0.06234567901234567,50.99876543209875,0)" xlink:href="#ax"/><use transform="matrix(0.06234567901234567,0,0,0.06234567901234567,63.46790123456788,0)" xlink:href="#aw"/><use transform="matrix(0.06234567901234567,0,0,0.06234567901234567,68.3932098765432,0)" xlink:href="#ay"/><use transform="matrix(0.06234567901234567,0,0,0.06234567901234567,79.61543209876541,0)" xlink:href="#az"/><use transform="matrix(0.06234567901234567,0,0,0.06234567901234567,85.84999999999998,0)" xlink:href="#V"/><use transform="matrix(0.06234567901234567,0,0,0.06234567901234567,93.26913580246911,0)" xlink:href="#W"/><use transform="matrix(0.06234567901234567,0,0,0.06234567901234567,105.73827160493823,0)" xlink:href="#T"/><use transform="matrix(0.06234567901234567,0,0,0.06234567901234567,118.20740740740737,0)" xlink:href="#S"/><use transform="matrix(0.06234567901234567,0,0,0.06234567901234567,130.6765432098765,0)" xlink:href="#V"/></g><g id="t"><use transform="matrix(0.05,0,0,0.05,0,0)" xlink:href="#ah"/><use transform="matrix(0.05,0,0,0.05,12,0)" xlink:href="#Y"/><use transform="matrix(0.05,0,0,0.05,22,0)" xlink:href="#Z"/><use transform="matrix(0.05,0,0,0.05,27.950000000000003,0)" xlink:href="#ai"/><use transform="matrix(0.05,0,0,0.05,32.95,0)" xlink:href="#ac"/><use transform="matrix(0.05,0,0,0.05,36.900000000000006,0)" xlink:href="#am"/></g><g id="u"><use transform="matrix(0.05,0,0,0.05,0,0)" xlink:href="#ak"/><use transform="matrix(0.05,0,0,0.05,12.950000000000001,0)" xlink:href="#Z"/><use transform="matrix(0.05,0,0,0.05,18.900000000000002,0)" xlink:href="#ac"/><use transform="matrix(0.05,0,0,0.05,22.85,0)" xlink:href="#ad"/><use transform="matrix(0.05,0,0,0.05,32.85,0)" xlink:href="#Z"/></g><g id="v"><use transform="matrix(0.05,0,0,0.05,0,0)" xlink:href="#ab"/><use transform="matrix(0.05,0,0,0.05,9,0)" xlink:href="#ag"/><use transform="matrix(0.05,0,0,0.05,19,0)" xlink:href="#al"/><use transform="matrix(0.05,0,0,0.05,33.95,0)" xlink:href="#Y"/><use transform="matrix(0.05,0,0,0.05,43.95,0)" xlink:href="#aa"/><use transform="matrix(0.05,0,0,0.05,53.95,0)" xlink:href="#af"/><use transform="matrix(0.05,0,0,0.05,58.95,0)" xlink:href="#ad"/><use transform="matrix(0.05,0,0,0.05,68.95,0)" xlink:href="#Z"/><use transform="matrix(0.05,0,0,0.05,74.9,0)" xlink:href="#ac"/><use transform="matrix(0.05,0,0,0.05,78.85000000000001,0)" xlink:href="#ag"/><use transform="matrix(0.05,0,0,0.05,88.85000000000001,0)" xlink:href="#am"/></g><path d="M233-177c-1 41-23 64-60 70L243 0h-38l-65-103H63V0H30v-248c88 3 205-21 203 71zM63-129c60-2 137 13 137-47 0-61-80-42-137-45v92" id="aA"/><g id="w"><use transform="matrix(0.05,0,0,0.05,0,0)" xlink:href="#aA"/><use transform="matrix(0.05,0,0,0.05,12.950000000000001,0)" xlink:href="#Y"/><use transform="matrix(0.05,0,0,0.05,22.950000000000003,0)" xlink:href="#al"/><use transform="matrix(0.05,0,0,0.05,37.900000000000006,0)" xlink:href="#ag"/><use transform="matrix(0.05,0,0,0.05,47.900000000000006,0)" xlink:href="#ar"/><use transform="matrix(0.05,0,0,0.05,56.900000000000006,0)" xlink:href="#Y"/><use transform="matrix(0.05,0,0,0.05,66.9,0)" xlink:href="#Z"/></g><g id="x"><use transform="matrix(0.05,0,0,0.05,0,0)" xlink:href="#ab"/><use transform="matrix(0.05,0,0,0.05,9,0)" xlink:href="#ag"/><use transform="matrix(0.05,0,0,0.05,19,0)" xlink:href="#aa"/><use transform="matrix(0.05,0,0,0.05,29,0)" xlink:href="#af"/><use transform="matrix(0.05,0,0,0.05,34,0)" xlink:href="#Y"/><use transform="matrix(0.05,0,0,0.05,44,0)" xlink:href="#ap"/><use transform="matrix(0.05,0,0,0.05,54,0)" xlink:href="#ae"/><use transform="matrix(0.05,0,0,0.05,64,0)" xlink:href="#ag"/><use transform="matrix(0.05,0,0,0.05,74,0)" xlink:href="#am"/></g><path d="M33 0v-248h34V0H33" id="aB"/><g id="y"><use transform="matrix(0.05,0,0,0.05,0,0)" xlink:href="#aB"/><use transform="matrix(0.05,0,0,0.05,5,0)" xlink:href="#af"/><use transform="matrix(0.05,0,0,0.05,10,0)" xlink:href="#Y"/><use transform="matrix(0.05,0,0,0.05,20,0)" xlink:href="#aa"/><use transform="matrix(0.05,0,0,0.05,30,0)" xlink:href="#am"/></g><path d="M115-194c55 1 70 41 70 98S169 2 115 4C84 4 66-9 55-30l1 105H24l-1-265h31l2 30c10-21 28-34 59-34zm-8 174c40 0 45-34 45-75s-6-73-45-74c-42 0-51 32-51 76 0 43 10 73 51 73" id="aC"/><path d="M141-36C126-15 110 5 73 4 37 3 15-17 15-53c-1-64 63-63 125-63 3-35-9-54-41-54-24 1-41 7-42 31l-33-3c5-37 33-52 76-52 45 0 72 20 72 64v82c-1 20 7 32 28 27v20c-31 9-61-2-59-35zM48-53c0 20 12 33 32 33 41-3 63-29 60-74-43 2-92-5-92 41zm25-158c8-23 27-35 38-54h36v5l-58 49H73" id="aD"/><g id="z"><use transform="matrix(0.05,0,0,0.05,0,0)" xlink:href="#aC"/><use transform="matrix(0.05,0,0,0.05,10,0)" xlink:href="#aD"/><use transform="matrix(0.05,0,0,0.05,20,0)" xlink:href="#at"/><use transform="matrix(0.05,0,0,0.05,30,0)" xlink:href="#ac"/><use transform="matrix(0.05,0,0,0.05,33.95,0)" xlink:href="#aa"/><use transform="matrix(0.05,0,0,0.05,43.95,0)" xlink:href="#ad"/><use transform="matrix(0.05,0,0,0.05,53.95,0)" xlink:href="#am"/></g><g id="A"><use transform="matrix(0.05,0,0,0.05,0,0)" xlink:href="#ae"/><use transform="matrix(0.05,0,0,0.05,10,0)" xlink:href="#ag"/></g><g id="B"><use transform="matrix(0.05,0,0,0.05,0,0)" xlink:href="#am"/><use transform="matrix(0.05,0,0,0.05,9,0)" xlink:href="#ac"/><use transform="matrix(0.05,0,0,0.05,12.949999999999998,0)" xlink:href="#af"/><use transform="matrix(0.05,0,0,0.05,17.95,0)" xlink:href="#Y"/></g><g id="C"><use transform="matrix(0.05,0,0,0.05,0,0)" xlink:href="#as"/><use transform="matrix(0.05,0,0,0.05,10,0)" xlink:href="#ag"/><use transform="matrix(0.05,0,0,0.05,20,0)" xlink:href="#at"/><use transform="matrix(0.05,0,0,0.05,30,0)" xlink:href="#ac"/><use transform="matrix(0.05,0,0,0.05,33.95,0)" xlink:href="#aa"/></g><g id="D"><use transform="matrix(0.05,0,0,0.05,0,0)" xlink:href="#as"/><use transform="matrix(0.05,0,0,0.05,10,0)" xlink:href="#ag"/><use transform="matrix(0.05,0,0,0.05,20,0)" xlink:href="#at"/><use transform="matrix(0.05,0,0,0.05,30,0)" xlink:href="#ag"/><use transform="matrix(0.05,0,0,0.05,40,0)" xlink:href="#ao"/><use transform="matrix(0.05,0,0,0.05,50,0)" xlink:href="#af"/></g><path d="M9 0v-24l116-142H16v-24h144v24L44-24h123V0H9" id="aE"/><g id="E"><use transform="matrix(0.05,0,0,0.05,0,0)" xlink:href="#aA"/><use transform="matrix(0.05,0,0,0.05,12.950000000000001,0)" xlink:href="#Y"/><use transform="matrix(0.05,0,0,0.05,22.950000000000003,0)" xlink:href="#ad"/><use transform="matrix(0.05,0,0,0.05,32.95,0)" xlink:href="#aj"/><use transform="matrix(0.05,0,0,0.05,36.900000000000006,0)" xlink:href="#ac"/><use transform="matrix(0.05,0,0,0.05,40.85000000000001,0)" xlink:href="#aE"/><use transform="matrix(0.05,0,0,0.05,49.85000000000001,0)" xlink:href="#ad"/><use transform="matrix(0.05,0,0,0.05,59.85,0)" xlink:href="#Z"/></g><path d="M115-194c53 0 69 39 70 98 0 66-23 100-70 100C84 3 66-7 56-30L54 0H23l1-261h32v101c10-23 28-34 59-34zm-8 174c40 0 45-34 45-75 0-40-5-75-45-74-42 0-51 32-51 76 0 43 10 73 51 73" id="aF"/><g id="F"><use transform="matrix(0.05,0,0,0.05,0,0)" xlink:href="#aF"/><use transform="matrix(0.05,0,0,0.05,10,0)" xlink:href="#ao"/><use transform="matrix(0.05,0,0,0.05,20,0)" xlink:href="#am"/><use transform="matrix(0.05,0,0,0.05,29,0)" xlink:href="#ab"/><use transform="matrix(0.05,0,0,0.05,38,0)" xlink:href="#ad"/><use transform="matrix(0.05,0,0,0.05,48,0)" xlink:href="#am"/></g><g id="G"><use transform="matrix(0.05,0,0,0.05,0,0)" xlink:href="#ad"/><use transform="matrix(0.05,0,0,0.05,10,0)" xlink:href="#aC"/><use transform="matrix(0.05,0,0,0.05,20,0)" xlink:href="#aj"/><use transform="matrix(0.05,0,0,0.05,23.95,0)" xlink:href="#ac"/><use transform="matrix(0.05,0,0,0.05,27.899999999999995,0)" xlink:href="#ab"/><use transform="matrix(0.05,0,0,0.05,36.9,0)" xlink:href="#ad"/><use transform="matrix(0.05,0,0,0.05,46.9,0)" xlink:href="#Z"/></g><g id="H"><use transform="matrix(0.05,0,0,0.05,0,0)" xlink:href="#ai"/><use transform="matrix(0.05,0,0,0.05,5,0)" xlink:href="#ac"/><use transform="matrix(0.05,0,0,0.05,8.95,0)" xlink:href="#aj"/><use transform="matrix(0.05,0,0,0.05,12.899999999999999,0)" xlink:href="#af"/><use transform="matrix(0.05,0,0,0.05,17.9,0)" xlink:href="#Z"/><use transform="matrix(0.05,0,0,0.05,23.849999999999998,0)" xlink:href="#ag"/></g><g id="I"><use transform="matrix(0.05,0,0,0.05,0,0)" xlink:href="#an"/><use transform="matrix(0.05,0,0,0.05,12.950000000000001,0)" xlink:href="#ad"/><use transform="matrix(0.05,0,0,0.05,22.950000000000003,0)" xlink:href="#Z"/></g><g id="J"><use transform="matrix(0.05,0,0,0.05,0,0)" xlink:href="#Z"/><use transform="matrix(0.05,0,0,0.05,5.95,0)" xlink:href="#Y"/><use transform="matrix(0.05,0,0,0.05,15.949999999999998,0)" xlink:href="#al"/><use transform="matrix(0.05,0,0,0.05,30.899999999999995,0)" xlink:href="#ag"/><use transform="matrix(0.05,0,0,0.05,40.9,0)" xlink:href="#ar"/><use transform="matrix(0.05,0,0,0.05,49.9,0)" xlink:href="#Y"/><use transform="matrix(0.05,0,0,0.05,59.900000000000006,0)" xlink:href="#Z"/></g><path d="M100-194c62-1 85 37 85 99 1 63-27 99-86 99S16-35 15-95c0-66 28-99 85-99zM99-20c44 1 53-31 53-75 0-43-8-75-51-75s-53 32-53 75 10 74 51 75zm66-238c-3 23-9 48-36 47-26-1-65-44-74 0H39c4-23 8-48 36-47s64 44 74 0h16" id="aG"/><g id="K"><use transform="matrix(0.05,0,0,0.05,0,0)" xlink:href="#aC"/><use transform="matrix(0.05,0,0,0.05,10,0)" xlink:href="#Y"/><use transform="matrix(0.05,0,0,0.05,20,0)" xlink:href="#Z"/><use transform="matrix(0.05,0,0,0.05,25.950000000000003,0)" xlink:href="#al"/><use transform="matrix(0.05,0,0,0.05,40.9,0)" xlink:href="#ac"/><use transform="matrix(0.05,0,0,0.05,44.85,0)" xlink:href="#am"/><use transform="matrix(0.05,0,0,0.05,53.85,0)" xlink:href="#am"/><use transform="matrix(0.05,0,0,0.05,62.85,0)" xlink:href="#aG"/><use transform="matrix(0.05,0,0,0.05,72.85,0)" xlink:href="#Y"/><use transform="matrix(0.05,0,0,0.05,82.85,0)" xlink:href="#am"/></g><g id="L"><use transform="matrix(0.05,0,0,0.05,0,0)" xlink:href="#ae"/><use transform="matrix(0.05,0,0,0.05,10,0)" xlink:href="#Y"/></g><path fill="#282c33" d="M232-93c-1 65-40 97-104 97C67 4 28-28 28-90v-158h33c8 89-33 224 67 224 102 0 64-133 71-224h33v155" id="aH"/><path fill="#282c33" d="M84 4C-5 8 30-112 23-190h32v120c0 31 7 50 39 49 72-2 45-101 50-169h31l1 190h-30c-1-10 1-25-2-33-11 22-28 36-60 37" id="aI"/><g id="M"><use transform="matrix(0.06234567901234567,0,0,0.06234567901234567,0,0)" xlink:href="#aH"/><use transform="matrix(0.06234567901234567,0,0,0.06234567901234567,16.147530864197527,0)" xlink:href="#ay"/><use transform="matrix(0.06234567901234567,0,0,0.06234567901234567,27.36975308641975,0)" xlink:href="#aI"/><use transform="matrix(0.06234567901234567,0,0,0.06234567901234567,39.83888888888888,0)" xlink:href="#W"/><use transform="matrix(0.06234567901234567,0,0,0.06234567901234567,52.308024691358014,0)" xlink:href="#V"/><use transform="matrix(0.06234567901234567,0,0,0.06234567901234567,59.72716049382715,0)" xlink:href="#aw"/><use transform="matrix(0.06234567901234567,0,0,0.06234567901234567,64.65246913580246,0)" xlink:href="#S"/></g><g id="N"><use transform="matrix(0.05,0,0,0.05,0,0)" xlink:href="#aq"/><use transform="matrix(0.05,0,0,0.05,10.950000000000001,0)" xlink:href="#ad"/><use transform="matrix(0.05,0,0,0.05,20.950000000000003,0)" xlink:href="#ar"/><use transform="matrix(0.05,0,0,0.05,29.950000000000003,0)" xlink:href="#ag"/><use transform="matrix(0.05,0,0,0.05,39.95,0)" xlink:href="#Z"/><use transform="matrix(0.05,0,0,0.05,45.900000000000006,0)" xlink:href="#ac"/><use transform="matrix(0.05,0,0,0.05,49.85000000000001,0)" xlink:href="#af"/><use transform="matrix(0.05,0,0,0.05,54.85,0)" xlink:href="#ad"/><use transform="matrix(0.05,0,0,0.05,64.85000000000001,0)" xlink:href="#Z"/></g><path d="M68-38c1 34 0 65-14 84H32c9-13 17-26 17-46H33v-38h35" id="aJ"/><g id="O"><use transform="matrix(0.05,0,0,0.05,0,0)" xlink:href="#ak"/><use transform="matrix(0.05,0,0,0.05,12.950000000000001,0)" xlink:href="#Z"/><use transform="matrix(0.05,0,0,0.05,18.900000000000002,0)" xlink:href="#ac"/><use transform="matrix(0.05,0,0,0.05,22.85,0)" xlink:href="#ad"/><use transform="matrix(0.05,0,0,0.05,32.85,0)" xlink:href="#Z"/><use transform="matrix(0.05,0,0,0.05,37.800000000000004,0)" xlink:href="#aJ"/></g><path d="M141 0L90-78 38 0H4l68-98-65-92h35l48 74 47-74h35l-64 92 68 98h-35" id="aK"/><g id="P"><use transform="matrix(0.05,0,0,0.05,0,0)" xlink:href="#Y"/><use transform="matrix(0.05,0,0,0.05,10,0)" xlink:href="#aK"/><use transform="matrix(0.05,0,0,0.05,19,0)" xlink:href="#ab"/><use transform="matrix(0.05,0,0,0.05,28,0)" xlink:href="#aj"/><use transform="matrix(0.05,0,0,0.05,31.950000000000003,0)" xlink:href="#ao"/><use transform="matrix(0.05,0,0,0.05,41.95,0)" xlink:href="#ac"/><use transform="matrix(0.05,0,0,0.05,45.900000000000006,0)" xlink:href="#Z"/></g><g id="Q"><use transform="matrix(0.05,0,0,0.05,0,0)" xlink:href="#aC"/><use transform="matrix(0.05,0,0,0.05,10,0)" xlink:href="#ag"/><use transform="matrix(0.05,0,0,0.05,20,0)" xlink:href="#am"/><use transform="matrix(0.05,0,0,0.05,29,0)" xlink:href="#af"/><use transform="matrix(0.05,0,0,0.05,34,0)" xlink:href="#ad"/><use transform="matrix(0.05,0,0,0.05,44,0)" xlink:href="#at"/><use transform="matrix(0.05,0,0,0.05,54,0)" xlink:href="#Y"/><use transform="matrix(0.05,0,0,0.05,64,0)" xlink:href="#aa"/><use transform="matrix(0.05,0,0,0.05,74,0)" xlink:href="#am"/></g></defs></g></svg>